<svg width="273" height="42" viewBox="0 0 273 42" fill="none" xmlns="http://www.w3.org/2000/svg">
<g filter="url(#filter0_ddiiii_373_10060)">
<rect x="3" y="3" width="267" height="36" rx="10" fill="#3D26C2"/>
<g filter="url(#filter1_i_373_10060)">
<path d="M112.076 21.868C112.076 21.404 112.148 20.972 112.292 20.572C112.436 20.164 112.64 19.812 112.904 19.516C113.176 19.22 113.504 18.988 113.888 18.82C114.272 18.652 114.704 18.568 115.184 18.568C115.776 18.568 116.336 18.676 116.864 18.892L116.552 20.08C116.384 20.008 116.192 19.948 115.976 19.9C115.768 19.852 115.544 19.828 115.304 19.828C114.736 19.828 114.304 20.008 114.008 20.368C113.712 20.72 113.564 21.22 113.564 21.868C113.564 22.492 113.704 22.988 113.984 23.356C114.264 23.716 114.736 23.896 115.4 23.896C115.648 23.896 115.892 23.872 116.132 23.824C116.372 23.776 116.58 23.716 116.756 23.644L116.96 24.844C116.8 24.924 116.556 24.996 116.228 25.06C115.908 25.124 115.576 25.156 115.232 25.156C114.696 25.156 114.228 25.076 113.828 24.916C113.436 24.748 113.108 24.52 112.844 24.232C112.588 23.936 112.396 23.588 112.268 23.188C112.14 22.78 112.076 22.34 112.076 21.868ZM118.084 25V15.928L119.536 15.688V18.796C119.696 18.74 119.88 18.692 120.088 18.652C120.304 18.612 120.516 18.592 120.724 18.592C121.228 18.592 121.644 18.664 121.972 18.808C122.308 18.944 122.576 19.14 122.776 19.396C122.976 19.644 123.116 19.944 123.196 20.296C123.284 20.648 123.328 21.04 123.328 21.472V25H121.876V21.7C121.876 21.364 121.852 21.08 121.804 20.848C121.764 20.608 121.692 20.416 121.588 20.272C121.492 20.12 121.36 20.012 121.192 19.948C121.024 19.876 120.816 19.84 120.568 19.84C120.376 19.84 120.18 19.86 119.98 19.9C119.78 19.94 119.632 19.976 119.536 20.008V25H118.084ZM126.533 25H125.081V18.724H126.533V25ZM126.689 16.888C126.689 17.16 126.601 17.376 126.425 17.536C126.249 17.696 126.041 17.776 125.801 17.776C125.553 17.776 125.341 17.696 125.165 17.536C124.989 17.376 124.901 17.16 124.901 16.888C124.901 16.608 124.989 16.388 125.165 16.228C125.341 16.068 125.553 15.988 125.801 15.988C126.041 15.988 126.249 16.068 126.425 16.228C126.601 16.388 126.689 16.608 126.689 16.888ZM131.961 20.032C131.841 19.992 131.673 19.952 131.457 19.912C131.249 19.864 131.005 19.84 130.725 19.84C130.565 19.84 130.393 19.856 130.209 19.888C130.033 19.92 129.909 19.948 129.837 19.972V25H128.385V19.024C128.665 18.92 129.013 18.824 129.429 18.736C129.853 18.64 130.321 18.592 130.833 18.592C130.929 18.592 131.041 18.6 131.169 18.616C131.297 18.624 131.425 18.64 131.553 18.664C131.681 18.68 131.805 18.704 131.925 18.736C132.045 18.76 132.141 18.784 132.213 18.808L131.961 20.032ZM138.901 21.856C138.901 22.352 138.829 22.804 138.685 23.212C138.541 23.62 138.337 23.968 138.073 24.256C137.809 24.544 137.489 24.768 137.113 24.928C136.745 25.088 136.337 25.168 135.889 25.168C135.441 25.168 135.033 25.088 134.665 24.928C134.297 24.768 133.981 24.544 133.717 24.256C133.453 23.968 133.245 23.62 133.093 23.212C132.949 22.804 132.877 22.352 132.877 21.856C132.877 21.36 132.949 20.912 133.093 20.512C133.245 20.104 133.453 19.756 133.717 19.468C133.989 19.18 134.309 18.96 134.677 18.808C135.045 18.648 135.449 18.568 135.889 18.568C136.329 18.568 136.733 18.648 137.101 18.808C137.477 18.96 137.797 19.18 138.061 19.468C138.325 19.756 138.529 20.104 138.673 20.512C138.825 20.912 138.901 21.36 138.901 21.856ZM137.413 21.856C137.413 21.232 137.277 20.74 137.005 20.38C136.741 20.012 136.369 19.828 135.889 19.828C135.409 19.828 135.033 20.012 134.761 20.38C134.497 20.74 134.365 21.232 134.365 21.856C134.365 22.488 134.497 22.988 134.761 23.356C135.033 23.724 135.409 23.908 135.889 23.908C136.369 23.908 136.741 23.724 137.005 23.356C137.277 22.988 137.413 22.488 137.413 21.856ZM142.581 25.12C142.149 25.112 141.789 25.064 141.501 24.976C141.221 24.888 140.997 24.764 140.829 24.604C140.661 24.436 140.541 24.232 140.469 23.992C140.405 23.744 140.373 23.464 140.373 23.152V15.928L141.825 15.688V22.876C141.825 23.052 141.837 23.2 141.861 23.32C141.893 23.44 141.945 23.544 142.017 23.632C142.089 23.712 142.185 23.776 142.305 23.824C142.433 23.864 142.593 23.896 142.785 23.92L142.581 25.12ZM143.611 21.892C143.611 21.34 143.691 20.856 143.851 20.44C144.019 20.024 144.239 19.68 144.511 19.408C144.783 19.128 145.095 18.92 145.447 18.784C145.799 18.64 146.159 18.568 146.527 18.568C147.391 18.568 148.063 18.836 148.543 19.372C149.031 19.908 149.275 20.708 149.275 21.772C149.275 21.852 149.271 21.944 149.263 22.048C149.263 22.144 149.259 22.232 149.251 22.312H145.111C145.151 22.816 145.327 23.208 145.639 23.488C145.959 23.76 146.419 23.896 147.019 23.896C147.371 23.896 147.691 23.864 147.979 23.8C148.275 23.736 148.507 23.668 148.675 23.596L148.867 24.784C148.787 24.824 148.675 24.868 148.531 24.916C148.395 24.956 148.235 24.992 148.051 25.024C147.875 25.064 147.683 25.096 147.475 25.12C147.267 25.144 147.055 25.156 146.839 25.156C146.287 25.156 145.807 25.076 145.399 24.916C144.991 24.748 144.655 24.52 144.391 24.232C144.127 23.936 143.931 23.592 143.803 23.2C143.675 22.8 143.611 22.364 143.611 21.892ZM147.823 21.244C147.823 21.044 147.795 20.856 147.739 20.68C147.683 20.496 147.599 20.34 147.487 20.212C147.383 20.076 147.251 19.972 147.091 19.9C146.939 19.82 146.755 19.78 146.539 19.78C146.315 19.78 146.119 19.824 145.951 19.912C145.783 19.992 145.639 20.1 145.519 20.236C145.407 20.372 145.319 20.528 145.255 20.704C145.191 20.88 145.147 21.06 145.123 21.244H147.823ZM153.023 23.98C153.471 23.98 153.811 23.956 154.043 23.908V22.3C153.963 22.276 153.847 22.252 153.695 22.228C153.543 22.204 153.375 22.192 153.191 22.192C153.031 22.192 152.867 22.204 152.699 22.228C152.539 22.252 152.391 22.296 152.255 22.36C152.127 22.424 152.023 22.516 151.943 22.636C151.863 22.748 151.823 22.892 151.823 23.068C151.823 23.412 151.931 23.652 152.147 23.788C152.363 23.916 152.655 23.98 153.023 23.98ZM152.903 18.568C153.383 18.568 153.787 18.628 154.115 18.748C154.443 18.868 154.703 19.036 154.895 19.252C155.095 19.468 155.235 19.732 155.315 20.044C155.403 20.348 155.447 20.684 155.447 21.052V24.856C155.223 24.904 154.883 24.96 154.427 25.024C153.979 25.096 153.471 25.132 152.903 25.132C152.527 25.132 152.183 25.096 151.871 25.024C151.559 24.952 151.291 24.836 151.067 24.676C150.851 24.516 150.679 24.308 150.551 24.052C150.431 23.796 150.371 23.48 150.371 23.104C150.371 22.744 150.439 22.44 150.575 22.192C150.719 21.944 150.911 21.744 151.151 21.592C151.391 21.432 151.667 21.32 151.979 21.256C152.299 21.184 152.631 21.148 152.975 21.148C153.135 21.148 153.303 21.16 153.479 21.184C153.655 21.2 153.843 21.232 154.043 21.28V21.04C154.043 20.872 154.023 20.712 153.983 20.56C153.943 20.408 153.871 20.276 153.767 20.164C153.671 20.044 153.539 19.952 153.371 19.888C153.211 19.824 153.007 19.792 152.759 19.792C152.423 19.792 152.115 19.816 151.835 19.864C151.555 19.912 151.327 19.968 151.151 20.032L150.971 18.856C151.155 18.792 151.423 18.728 151.775 18.664C152.127 18.6 152.503 18.568 152.903 18.568ZM160.801 20.032C160.681 19.992 160.513 19.952 160.297 19.912C160.089 19.864 159.845 19.84 159.565 19.84C159.405 19.84 159.233 19.856 159.049 19.888C158.873 19.92 158.749 19.948 158.677 19.972V25H157.225V19.024C157.505 18.92 157.853 18.824 158.269 18.736C158.693 18.64 159.161 18.592 159.673 18.592C159.769 18.592 159.881 18.6 160.009 18.616C160.137 18.624 160.265 18.64 160.393 18.664C160.521 18.68 160.645 18.704 160.765 18.736C160.885 18.76 160.981 18.784 161.053 18.808L160.801 20.032Z" fill="#FFF8F8"/>
</g>
</g>
<defs>
<filter id="filter0_ddiiii_373_10060" x="0" y="0" width="273" height="42" filterUnits="userSpaceOnUse" color-interpolation-filters="sRGB">
<feFlood flood-opacity="0" result="BackgroundImageFix"/>
<feColorMatrix in="SourceAlpha" type="matrix" values="0 0 0 0 0 0 0 0 0 0 0 0 0 0 0 0 0 0 127 0" result="hardAlpha"/>
<feOffset dx="-1" dy="1"/>
<feGaussianBlur stdDeviation="1"/>
<feColorMatrix type="matrix" values="0 0 0 0 0.105882 0 0 0 0 0.0666667 0 0 0 0 0.341176 0 0 0 0.5 0"/>
<feBlend mode="normal" in2="BackgroundImageFix" result="effect1_dropShadow_373_10060"/>
<feColorMatrix in="SourceAlpha" type="matrix" values="0 0 0 0 0 0 0 0 0 0 0 0 0 0 0 0 0 0 127 0" result="hardAlpha"/>
<feOffset dx="1" dy="-1"/>
<feGaussianBlur stdDeviation="1"/>
<feColorMatrix type="matrix" values="0 0 0 0 0.372549 0 0 0 0 0.231373 0 0 0 0 1 0 0 0 0.3 0"/>
<feBlend mode="normal" in2="effect1_dropShadow_373_10060" result="effect2_dropShadow_373_10060"/>
<feBlend mode="normal" in="SourceGraphic" in2="effect2_dropShadow_373_10060" result="shape"/>
<feColorMatrix in="SourceAlpha" type="matrix" values="0 0 0 0 0 0 0 0 0 0 0 0 0 0 0 0 0 0 127 0" result="hardAlpha"/>
<feOffset dx="1" dy="-1"/>
<feGaussianBlur stdDeviation="1.5"/>
<feComposite in2="hardAlpha" operator="arithmetic" k2="-1" k3="1"/>
<feColorMatrix type="matrix" values="0 0 0 0 0.105882 0 0 0 0 0.0666667 0 0 0 0 0.341176 0 0 0 0.9 0"/>
<feBlend mode="normal" in2="shape" result="effect3_innerShadow_373_10060"/>
<feColorMatrix in="SourceAlpha" type="matrix" values="0 0 0 0 0 0 0 0 0 0 0 0 0 0 0 0 0 0 127 0" result="hardAlpha"/>
<feOffset dx="-1" dy="1"/>
<feGaussianBlur stdDeviation="1"/>
<feComposite in2="hardAlpha" operator="arithmetic" k2="-1" k3="1"/>
<feColorMatrix type="matrix" values="0 0 0 0 0.372549 0 0 0 0 0.231373 0 0 0 0 1 0 0 0 0.9 0"/>
<feBlend mode="normal" in2="effect3_innerShadow_373_10060" result="effect4_innerShadow_373_10060"/>
<feColorMatrix in="SourceAlpha" type="matrix" values="0 0 0 0 0 0 0 0 0 0 0 0 0 0 0 0 0 0 127 0" result="hardAlpha"/>
<feOffset dx="1" dy="1"/>
<feGaussianBlur stdDeviation="1"/>
<feComposite in2="hardAlpha" operator="arithmetic" k2="-1" k3="1"/>
<feColorMatrix type="matrix" values="0 0 0 0 0.105882 0 0 0 0 0.0666667 0 0 0 0 0.341176 0 0 0 0.2 0"/>
<feBlend mode="normal" in2="effect4_innerShadow_373_10060" result="effect5_innerShadow_373_10060"/>
<feColorMatrix in="SourceAlpha" type="matrix" values="0 0 0 0 0 0 0 0 0 0 0 0 0 0 0 0 0 0 127 0" result="hardAlpha"/>
<feOffset dx="-1" dy="-1"/>
<feGaussianBlur stdDeviation="1"/>
<feComposite in2="hardAlpha" operator="arithmetic" k2="-1" k3="1"/>
<feColorMatrix type="matrix" values="0 0 0 0 0.105882 0 0 0 0 0.0666667 0 0 0 0 0.341176 0 0 0 0.2 0"/>
<feBlend mode="normal" in2="effect5_innerShadow_373_10060" result="effect6_innerShadow_373_10060"/>
</filter>
<filter id="filter1_i_373_10060" x="112.076" y="15.688" width="51.9768" height="12.48" filterUnits="userSpaceOnUse" color-interpolation-filters="sRGB">
<feFlood flood-opacity="0" result="BackgroundImageFix"/>
<feBlend mode="normal" in="SourceGraphic" in2="BackgroundImageFix" result="shape"/>
<feColorMatrix in="SourceAlpha" type="matrix" values="0 0 0 0 0 0 0 0 0 0 0 0 0 0 0 0 0 0 127 0" result="hardAlpha"/>
<feOffset dx="3" dy="3"/>
<feGaussianBlur stdDeviation="2"/>
<feComposite in2="hardAlpha" operator="arithmetic" k2="-1" k3="1"/>
<feColorMatrix type="matrix" values="0 0 0 0 0.791667 0 0 0 0 0.323264 0 0 0 0 0.716388 0 0 0 0.4 0"/>
<feBlend mode="normal" in2="shape" result="effect1_innerShadow_373_10060"/>
</filter>
</defs>
</svg>
